<svg id="Capa_1" enable-background="new 0 0 509.556 509.556" height="512" viewBox="0 0 509.556 509.556" width="512" xmlns="http://www.w3.org/2000/svg"><g><g><path d="m350.423 436.003c-2.53 0-5.001-1.281-6.413-3.601-2.154-3.538-1.032-8.152 2.506-10.307l13.434-8.179 10.627-6.356c4.58-2.74 7.426-7.757 7.426-13.094 0-4.143 3.357-7.5 7.5-7.5s7.5 3.357 7.5 7.5c0 10.584-5.643 20.533-14.727 25.967l-10.576 6.326-13.383 8.148c-1.219.743-2.565 1.096-3.894 1.096z" fill="#a2e62e"/></g><path d="m363.849 420.323c-10.04-18.612-33.268-25.56-51.879-15.52-13.332 7.192-25.036 35.826-30.604 51.496l.698.537 3.697 8.622 2.727 4.042c16.154 3.951 46.511 9.894 59.843 2.702 18.611-10.04 25.559-33.267 15.518-51.879z" fill="#bbec6c"/><g><g id="XMLID_206_"><g><path d="m331.155 12.28c83.943 0 151.994 69.306 151.96 154.8-.034 85.675-69.276 154.674-153.414 154.674h-197.933c-58.073 0-106.012-47.487-106.206-106.621-.195-59.263 46.921-107.362 105.066-107.362 15.895 0 30.969 3.597 44.475 10.034 5.43 2.588 11.829-.025 13.958-5.732 21.762-58.339 77.167-99.793 142.094-99.793z" fill="#f9f3f1"/></g></g></g><path d="m73.461 248.074c-.195-59.263 46.921-107.362 105.066-107.362 15.895 0 30.969 3.597 44.475 10.033 5.43 2.588 11.829-.025 13.958-5.732 21.762-58.338 77.167-99.793 142.093-99.793 21.108 0 41.209 4.386 59.478 12.306-27.493-27.957-65.452-45.246-107.376-45.246-64.927 0-120.332 41.454-142.093 99.793-2.129 5.707-8.528 8.32-13.958 5.732-13.506-6.437-28.58-10.034-44.475-10.034-58.145 0-105.26 48.099-105.066 107.362.155 47.218 30.752 87.007 72.642 101.126-15.344-18.449-24.658-42.19-24.744-68.185z" fill="#f3eae6"/><g><g><path d="m279.472 329.254c-2.39 0-4.737-1.14-6.191-3.258-2.343-3.416-1.474-8.084 1.941-10.428l22.882-15.698c.146-.1.295-.194.447-.284 11.426-6.704 18.889-18.589 19.964-31.793l.014-.154c.344-4.128 3.972-7.216 8.097-6.851 4.128.344 7.195 3.969 6.851 8.097l-.012.141c-1.463 17.965-11.582 34.158-27.085 43.358l-22.671 15.554c-1.298.889-2.775 1.316-4.237 1.316z" fill="#a2e62e"/></g><path d="m302.346 306.055c13.775 25.535 4.242 57.402-21.292 71.177-20.286 10.944-69.315-.281-88.613-5.358-4.403-1.158-6.906-5.798-5.456-10.114 6.355-18.915 23.898-66.054 44.184-76.998 25.535-13.774 57.402-4.241 71.177 21.293z" fill="#bbec6c"/><path d="m246.86 327.467-59.044 31.852c-.293.852-.574 1.677-.831 2.441-1.45 4.315 1.053 8.955 5.456 10.114.78.205 1.624.423 2.497.646l59.044-31.853c3.645-1.967 5.006-6.516 3.04-10.161s-6.518-5.008-10.162-3.039z" fill="#a2e62e"/><path d="m322.441 434.141-41.076 22.158c-.608 1.709-1.145 3.271-1.6 4.627-1.057 3.145.768 6.527 3.977 7.371 1.384.364 2.983.772 4.745 1.203l41.075-22.159c3.646-1.967 5.007-6.516 3.04-10.161-1.965-3.645-6.515-5.008-10.161-3.039z" fill="#a2e62e"/><g><path d="m181.143 422.298h-173.643c-4.142 0-7.5-3.357-7.5-7.5s3.358-7.5 7.5-7.5h173.643c4.142 0 7.5 3.357 7.5 7.5s-3.358 7.5-7.5 7.5z" fill="#a6e7f0"/></g><g><path d="m219.933 483.077h-96.208c-4.142 0-7.5-3.357-7.5-7.5s3.358-7.5 7.5-7.5h96.208c4.142 0 7.5 3.357 7.5 7.5s-3.358 7.5-7.5 7.5z" fill="#a6e7f0"/></g><g><path d="m242.755 448.242h-25.11c-4.142 0-7.5-3.357-7.5-7.5s3.358-7.5 7.5-7.5h25.11c4.142 0 7.5 3.357 7.5 7.5s-3.358 7.5-7.5 7.5z" fill="#a6e7f0"/></g><g><path d="m484.096 414.896h-63.37c-4.143 0-7.5-3.357-7.5-7.5s3.357-7.5 7.5-7.5h63.37c5.768 0 10.46-4.692 10.46-10.461s-4.692-10.461-10.46-10.461h-15.861c-4.143 0-7.5-3.357-7.5-7.5s3.357-7.5 7.5-7.5h15.861c14.039 0 25.46 11.422 25.46 25.461s-11.421 25.461-25.46 25.461z" fill="#a6e7f0"/></g><g><path d="m458.497 497.276h-23.572c-4.143 0-7.5-3.357-7.5-7.5s3.357-7.5 7.5-7.5h23.572c4.342 0 7.874-3.532 7.874-7.873 0-4.342-3.532-7.874-7.874-7.874h-62.519c-4.143 0-7.5-3.357-7.5-7.5s3.357-7.5 7.5-7.5h62.519c12.612 0 22.874 10.262 22.874 22.874s-10.262 22.873-22.874 22.873z" fill="#a6e7f0"/></g></g></g></svg>